<?xml version="1.0" encoding="UTF-8" standalone="no"?>
<svg
   height="200"
   width="200"
   viewBox="-51.2 -51.2 614.4 614.4"
   xml:space="preserve"
   fill="#fff"
   stroke="#fff"
   stroke-width=".005"
   version="1.1"
   id="svg5"
   sodipodi:docname="image.svg"
   inkscape:version="1.3.2 (091e20e, 2023-11-25, custom)"
   xmlns:inkscape="http://www.inkscape.org/namespaces/inkscape"
   xmlns:sodipodi="http://sodipodi.sourceforge.net/DTD/sodipodi-0.dtd"
   xmlns="http://www.w3.org/2000/svg"
   xmlns:svg="http://www.w3.org/2000/svg"><defs
   id="defs5" /><sodipodi:namedview
   id="namedview5"
   pagecolor="#ffffff"
   bordercolor="#000000"
   borderopacity="0.25"
   inkscape:showpageshadow="2"
   inkscape:pageopacity="0.0"
   inkscape:pagecheckerboard="0"
   inkscape:deskcolor="#d1d1d1"
   inkscape:zoom="5.955"
   inkscape:cx="99.916037"
   inkscape:cy="86.565911"
   inkscape:window-width="2560"
   inkscape:window-height="1369"
   inkscape:window-x="-8"
   inkscape:window-y="-8"
   inkscape:window-maximized="1"
   inkscape:current-layer="svg5" />
  <ellipse
   cx="256.25793"
   cy="252.90479"
   id="circle1"
   rx="188.67984"
   ry="167.78714"
   style="stroke-width:0.00347515" />
  <path
   style="fill:#48d55d"
   d="M227.091 90.072h185.758c14.216 0 25.684 11.587 25.684 25.684v120.175c0 14.216-11.587 25.684-25.684 25.684h-45.275l30.701 45.394-111.574-43.602c-3.106-1.195-5.973-1.792-9.318-1.792H227.21c-14.216 0-25.684-11.587-25.684-25.684V115.755c0-14.216 11.587-25.684 25.684-25.684h-.119z"
   id="path1" />
  <path
   style="fill:#2bb9e9"
   d="m339.741 284.312-53.159-20.786c-3.106-1.195-5.973-1.792-9.318-1.792h-50.173c-14.216 0-25.684-11.587-25.684-25.684v-60.804h111.574c14.813 0 26.878 12.065 26.878 26.878v82.307l-.118-.119z"
   id="path2" />
  <path
   style="fill:#fff"
   d="M253.491 152.429h128.776c1.434 0 2.628-1.195 2.628-2.628v-1.911c0-1.434-1.195-2.628-2.628-2.628H253.491c-1.434 0-2.628 1.195-2.628 2.628v1.911c0 1.434 1.195 2.628 2.628 2.628zm0 35.599h128.776c1.434 0 2.628-1.195 2.628-2.628v-1.911c0-1.434-1.195-2.628-2.628-2.628H253.491c-1.434 0-2.628 1.195-2.628 2.628v1.911c0 1.433 1.195 2.628 2.628 2.628zm0-17.799h128.776c1.434 0 2.628-1.195 2.628-2.628v-1.911c0-1.434-1.195-2.628-2.628-2.628H253.491c-1.434 0-2.628 1.195-2.628 2.628v1.911c0 1.433 1.195 2.628 2.628 2.628zm0 35.598h128.776c1.434 0 2.628-1.195 2.628-2.628v-1.911c0-1.434-1.195-2.628-2.628-2.628H253.491c-1.434 0-2.628 1.195-2.628 2.628v1.911c0 1.434 1.195 2.628 2.628 2.628z"
   id="path3" />
  <path
   style="fill:#38cdff"
   d="M308.442 180.383H99.151c-14.216 0-25.684 11.587-25.684 25.684v137.139c0 14.216 11.587 25.684 25.684 25.684h52.323l-33.687 49.934 123.042-48.142c3.106-1.195 5.973-1.792 9.318-1.792h58.176c14.216 0 25.684-11.587 25.684-25.684v-137.14c0-14.216-11.587-25.684-25.684-25.684h.119z"
   id="path4" />
  <path
   style="fill:#fff"
   d="M277.144 307.606H135.108c-1.434 0-2.628-1.195-2.628-2.628v-2.628c0-1.434 1.195-2.628 2.628-2.628h142.036c1.434 0 2.628 1.195 2.628 2.628v2.628a2.65 2.65 0 0 1-2.628 2.628zm0-19.591H135.108c-1.434 0-2.628-1.195-2.628-2.628v-2.628c0-1.434 1.195-2.628 2.628-2.628h142.036c1.434 0 2.628 1.195 2.628 2.628v2.628c0 1.433-1.194 2.628-2.628 2.628zm0-19.591H135.108c-1.434 0-2.628-1.195-2.628-2.628v-2.628c0-1.434 1.195-2.628 2.628-2.628h142.036c1.434 0 2.628 1.195 2.628 2.628v2.628c0 1.433-1.194 2.628-2.628 2.628zm0-19.592H135.108c-1.434 0-2.628-1.195-2.628-2.628v-2.628c0-1.434 1.195-2.628 2.628-2.628h142.036c1.434 0 2.628 1.195 2.628 2.628v2.628a2.65 2.65 0 0 1-2.628 2.628z"
   id="path5" />
</svg>
